<mxfile host="app.diagrams.net" modified="2023-06-12T15:44:24.503Z" agent="Mozilla/5.0 (Windows NT 10.0; Win64; x64) AppleWebKit/537.36 (KHTML, like Gecko) Chrome/114.0.0.0 Safari/537.36 Edg/114.0.1823.43" version="21.3.8" etag="ckBlU4EZ-mwgETPkz833" type="device">
  <diagram id="lIJbLSvkNmHluNAbwGaC" name="Page-1">
    <mxGraphModel dx="2063" dy="1190" grid="1" gridSize="10" guides="1" tooltips="1" connect="1" arrows="1" fold="1" page="1" pageScale="1" pageWidth="850" pageHeight="1100" math="0" shadow="0">
      <root>
        <mxCell id="0" />
        <mxCell id="1" parent="0" />
        <mxCell id="P7ycPzp3qJsK3b-wpOH1-1" value="" style="rounded=0;whiteSpace=wrap;html=1;" vertex="1" parent="1">
          <mxGeometry x="190" y="70" width="1300" height="100" as="geometry" />
        </mxCell>
        <mxCell id="P7ycPzp3qJsK3b-wpOH1-2" value="Logo" style="rounded=1;whiteSpace=wrap;html=1;" vertex="1" parent="1">
          <mxGeometry x="1275" y="90" width="120" height="60" as="geometry" />
        </mxCell>
        <mxCell id="P7ycPzp3qJsK3b-wpOH1-3" value="Nom compagnie" style="shape=process;whiteSpace=wrap;html=1;backgroundOutline=1;" vertex="1" parent="1">
          <mxGeometry x="300" y="90" width="120" height="60" as="geometry" />
        </mxCell>
        <mxCell id="P7ycPzp3qJsK3b-wpOH1-4" value="" style="rounded=0;whiteSpace=wrap;html=1;" vertex="1" parent="1">
          <mxGeometry x="190" y="180" width="1300" height="50" as="geometry" />
        </mxCell>
        <mxCell id="P7ycPzp3qJsK3b-wpOH1-5" value="Accueil" style="rounded=1;whiteSpace=wrap;html=1;" vertex="1" parent="1">
          <mxGeometry x="280" y="190" width="100" height="30" as="geometry" />
        </mxCell>
        <mxCell id="P7ycPzp3qJsK3b-wpOH1-6" value="Formulaire" style="rounded=1;whiteSpace=wrap;html=1;" vertex="1" parent="1">
          <mxGeometry x="800" y="190" width="100" height="30" as="geometry" />
        </mxCell>
        <mxCell id="P7ycPzp3qJsK3b-wpOH1-7" value="Catalogue" style="rounded=1;whiteSpace=wrap;html=1;" vertex="1" parent="1">
          <mxGeometry x="1240" y="190" width="100" height="30" as="geometry" />
        </mxCell>
        <mxCell id="P7ycPzp3qJsK3b-wpOH1-8" value="Aside" style="rounded=0;whiteSpace=wrap;html=1;" vertex="1" parent="1">
          <mxGeometry x="190" y="240" width="1300" height="100" as="geometry" />
        </mxCell>
        <mxCell id="P7ycPzp3qJsK3b-wpOH1-9" value="" style="rounded=0;whiteSpace=wrap;html=1;" vertex="1" parent="1">
          <mxGeometry x="190" y="350" width="1300" height="600" as="geometry" />
        </mxCell>
        <mxCell id="P7ycPzp3qJsK3b-wpOH1-10" value="Footer" style="rounded=0;whiteSpace=wrap;html=1;" vertex="1" parent="1">
          <mxGeometry x="190" y="960" width="1300" height="90" as="geometry" />
        </mxCell>
        <mxCell id="P7ycPzp3qJsK3b-wpOH1-11" value="" style="rounded=0;whiteSpace=wrap;html=1;" vertex="1" parent="1">
          <mxGeometry x="240" y="1370" width="1210" height="100" as="geometry" />
        </mxCell>
        <mxCell id="P7ycPzp3qJsK3b-wpOH1-12" value="Logo" style="rounded=1;whiteSpace=wrap;html=1;" vertex="1" parent="1">
          <mxGeometry x="1022.5" y="1390" width="120" height="60" as="geometry" />
        </mxCell>
        <mxCell id="P7ycPzp3qJsK3b-wpOH1-13" value="Nom compagnie" style="shape=process;whiteSpace=wrap;html=1;backgroundOutline=1;" vertex="1" parent="1">
          <mxGeometry x="552.5" y="1390" width="120" height="60" as="geometry" />
        </mxCell>
        <mxCell id="P7ycPzp3qJsK3b-wpOH1-14" value="" style="rounded=0;whiteSpace=wrap;html=1;" vertex="1" parent="1">
          <mxGeometry x="240" y="1480" width="1210" height="50" as="geometry" />
        </mxCell>
        <mxCell id="P7ycPzp3qJsK3b-wpOH1-15" value="Accueil" style="rounded=1;whiteSpace=wrap;html=1;" vertex="1" parent="1">
          <mxGeometry x="287.5" y="1490" width="100" height="30" as="geometry" />
        </mxCell>
        <mxCell id="P7ycPzp3qJsK3b-wpOH1-16" value="Formulaire" style="rounded=1;whiteSpace=wrap;html=1;" vertex="1" parent="1">
          <mxGeometry x="807.5" y="1490" width="100" height="30" as="geometry" />
        </mxCell>
        <mxCell id="P7ycPzp3qJsK3b-wpOH1-17" value="Catalogue" style="rounded=1;whiteSpace=wrap;html=1;" vertex="1" parent="1">
          <mxGeometry x="1247.5" y="1490" width="100" height="30" as="geometry" />
        </mxCell>
        <mxCell id="P7ycPzp3qJsK3b-wpOH1-18" value="Aside" style="rounded=0;whiteSpace=wrap;html=1;" vertex="1" parent="1">
          <mxGeometry x="240" y="1540" width="1210" height="100" as="geometry" />
        </mxCell>
        <mxCell id="P7ycPzp3qJsK3b-wpOH1-19" value="" style="rounded=0;whiteSpace=wrap;html=1;" vertex="1" parent="1">
          <mxGeometry x="240" y="1650" width="1210" height="750" as="geometry" />
        </mxCell>
        <mxCell id="P7ycPzp3qJsK3b-wpOH1-20" value="Footer" style="rounded=0;whiteSpace=wrap;html=1;" vertex="1" parent="1">
          <mxGeometry x="240" y="2420" width="1210" height="90" as="geometry" />
        </mxCell>
        <mxCell id="P7ycPzp3qJsK3b-wpOH1-21" value="" style="rounded=0;whiteSpace=wrap;html=1;" vertex="1" parent="1">
          <mxGeometry x="340" y="2990" width="950" height="100" as="geometry" />
        </mxCell>
        <mxCell id="P7ycPzp3qJsK3b-wpOH1-22" value="Logo" style="rounded=1;whiteSpace=wrap;html=1;" vertex="1" parent="1">
          <mxGeometry x="970" y="3010" width="120" height="60" as="geometry" />
        </mxCell>
        <mxCell id="P7ycPzp3qJsK3b-wpOH1-23" value="Nom compagnie" style="shape=process;whiteSpace=wrap;html=1;backgroundOutline=1;" vertex="1" parent="1">
          <mxGeometry x="625" y="3020" width="120" height="60" as="geometry" />
        </mxCell>
        <mxCell id="P7ycPzp3qJsK3b-wpOH1-24" value="" style="rounded=0;whiteSpace=wrap;html=1;" vertex="1" parent="1">
          <mxGeometry x="340" y="3100" width="950" height="50" as="geometry" />
        </mxCell>
        <mxCell id="P7ycPzp3qJsK3b-wpOH1-25" value="Accueil" style="rounded=1;whiteSpace=wrap;html=1;" vertex="1" parent="1">
          <mxGeometry x="572.5" y="3110" width="100" height="30" as="geometry" />
        </mxCell>
        <mxCell id="P7ycPzp3qJsK3b-wpOH1-26" value="Formulaire" style="rounded=1;whiteSpace=wrap;html=1;" vertex="1" parent="1">
          <mxGeometry x="805" y="3110" width="100" height="30" as="geometry" />
        </mxCell>
        <mxCell id="P7ycPzp3qJsK3b-wpOH1-27" value="Catalogue" style="rounded=1;whiteSpace=wrap;html=1;" vertex="1" parent="1">
          <mxGeometry x="992.5" y="3110" width="100" height="30" as="geometry" />
        </mxCell>
        <mxCell id="P7ycPzp3qJsK3b-wpOH1-28" value="Aside" style="rounded=0;whiteSpace=wrap;html=1;" vertex="1" parent="1">
          <mxGeometry x="340" y="3160" width="950" height="100" as="geometry" />
        </mxCell>
        <mxCell id="P7ycPzp3qJsK3b-wpOH1-29" value="" style="rounded=0;whiteSpace=wrap;html=1;" vertex="1" parent="1">
          <mxGeometry x="340" y="3280" width="950" height="750" as="geometry" />
        </mxCell>
        <mxCell id="P7ycPzp3qJsK3b-wpOH1-30" value="Footer" style="rounded=0;whiteSpace=wrap;html=1;" vertex="1" parent="1">
          <mxGeometry x="340" y="4040" width="950" height="90" as="geometry" />
        </mxCell>
        <mxCell id="P7ycPzp3qJsK3b-wpOH1-31" value="" style="whiteSpace=wrap;html=1;aspect=fixed;" vertex="1" parent="1">
          <mxGeometry x="230" y="430" width="200" height="200" as="geometry" />
        </mxCell>
        <mxCell id="P7ycPzp3qJsK3b-wpOH1-32" value="Nom" style="rounded=0;whiteSpace=wrap;html=1;" vertex="1" parent="1">
          <mxGeometry x="465" y="500" width="120" height="60" as="geometry" />
        </mxCell>
        <mxCell id="P7ycPzp3qJsK3b-wpOH1-33" value="" style="whiteSpace=wrap;html=1;aspect=fixed;" vertex="1" parent="1">
          <mxGeometry x="650" y="430" width="200" height="200" as="geometry" />
        </mxCell>
        <mxCell id="P7ycPzp3qJsK3b-wpOH1-34" value="Nom" style="rounded=0;whiteSpace=wrap;html=1;" vertex="1" parent="1">
          <mxGeometry x="885" y="500" width="120" height="60" as="geometry" />
        </mxCell>
        <mxCell id="P7ycPzp3qJsK3b-wpOH1-35" value="" style="whiteSpace=wrap;html=1;aspect=fixed;" vertex="1" parent="1">
          <mxGeometry x="1080" y="440" width="200" height="200" as="geometry" />
        </mxCell>
        <mxCell id="P7ycPzp3qJsK3b-wpOH1-36" value="Nom" style="rounded=0;whiteSpace=wrap;html=1;" vertex="1" parent="1">
          <mxGeometry x="1315" y="510" width="120" height="60" as="geometry" />
        </mxCell>
        <mxCell id="P7ycPzp3qJsK3b-wpOH1-37" value="" style="whiteSpace=wrap;html=1;aspect=fixed;" vertex="1" parent="1">
          <mxGeometry x="230" y="680" width="200" height="200" as="geometry" />
        </mxCell>
        <mxCell id="P7ycPzp3qJsK3b-wpOH1-38" value="Nom" style="rounded=0;whiteSpace=wrap;html=1;" vertex="1" parent="1">
          <mxGeometry x="465" y="750" width="120" height="60" as="geometry" />
        </mxCell>
        <mxCell id="P7ycPzp3qJsK3b-wpOH1-39" value="" style="whiteSpace=wrap;html=1;aspect=fixed;" vertex="1" parent="1">
          <mxGeometry x="650" y="680" width="200" height="200" as="geometry" />
        </mxCell>
        <mxCell id="P7ycPzp3qJsK3b-wpOH1-40" value="Nom" style="rounded=0;whiteSpace=wrap;html=1;" vertex="1" parent="1">
          <mxGeometry x="885" y="750" width="120" height="60" as="geometry" />
        </mxCell>
        <mxCell id="P7ycPzp3qJsK3b-wpOH1-41" value="" style="whiteSpace=wrap;html=1;aspect=fixed;" vertex="1" parent="1">
          <mxGeometry x="1080" y="690" width="200" height="200" as="geometry" />
        </mxCell>
        <mxCell id="P7ycPzp3qJsK3b-wpOH1-42" value="Nom" style="rounded=0;whiteSpace=wrap;html=1;" vertex="1" parent="1">
          <mxGeometry x="1315" y="760" width="120" height="60" as="geometry" />
        </mxCell>
        <mxCell id="P7ycPzp3qJsK3b-wpOH1-43" value="" style="whiteSpace=wrap;html=1;aspect=fixed;" vertex="1" parent="1">
          <mxGeometry x="400" y="1690" width="180" height="180" as="geometry" />
        </mxCell>
        <mxCell id="P7ycPzp3qJsK3b-wpOH1-44" value="Nom" style="rounded=0;whiteSpace=wrap;html=1;" vertex="1" parent="1">
          <mxGeometry x="667.5" y="1750" width="120" height="60" as="geometry" />
        </mxCell>
        <mxCell id="P7ycPzp3qJsK3b-wpOH1-45" value="" style="whiteSpace=wrap;html=1;aspect=fixed;" vertex="1" parent="1">
          <mxGeometry x="925" y="1690" width="180" height="180" as="geometry" />
        </mxCell>
        <mxCell id="P7ycPzp3qJsK3b-wpOH1-46" value="Nom" style="rounded=0;whiteSpace=wrap;html=1;" vertex="1" parent="1">
          <mxGeometry x="1190" y="1750" width="120" height="60" as="geometry" />
        </mxCell>
        <mxCell id="P7ycPzp3qJsK3b-wpOH1-47" value="" style="whiteSpace=wrap;html=1;aspect=fixed;" vertex="1" parent="1">
          <mxGeometry x="405" y="1950" width="180" height="180" as="geometry" />
        </mxCell>
        <mxCell id="P7ycPzp3qJsK3b-wpOH1-48" value="Nom" style="rounded=0;whiteSpace=wrap;html=1;" vertex="1" parent="1">
          <mxGeometry x="672.5" y="2010" width="120" height="60" as="geometry" />
        </mxCell>
        <mxCell id="P7ycPzp3qJsK3b-wpOH1-49" value="" style="whiteSpace=wrap;html=1;aspect=fixed;" vertex="1" parent="1">
          <mxGeometry x="930" y="1950" width="180" height="180" as="geometry" />
        </mxCell>
        <mxCell id="P7ycPzp3qJsK3b-wpOH1-50" value="Nom" style="rounded=0;whiteSpace=wrap;html=1;" vertex="1" parent="1">
          <mxGeometry x="1195" y="2010" width="120" height="60" as="geometry" />
        </mxCell>
        <mxCell id="P7ycPzp3qJsK3b-wpOH1-51" value="" style="whiteSpace=wrap;html=1;aspect=fixed;" vertex="1" parent="1">
          <mxGeometry x="405" y="2200" width="180" height="180" as="geometry" />
        </mxCell>
        <mxCell id="P7ycPzp3qJsK3b-wpOH1-52" value="Nom" style="rounded=0;whiteSpace=wrap;html=1;" vertex="1" parent="1">
          <mxGeometry x="672.5" y="2260" width="120" height="60" as="geometry" />
        </mxCell>
        <mxCell id="P7ycPzp3qJsK3b-wpOH1-53" value="" style="whiteSpace=wrap;html=1;aspect=fixed;" vertex="1" parent="1">
          <mxGeometry x="930" y="2200" width="180" height="180" as="geometry" />
        </mxCell>
        <mxCell id="P7ycPzp3qJsK3b-wpOH1-54" value="Nom" style="rounded=0;whiteSpace=wrap;html=1;" vertex="1" parent="1">
          <mxGeometry x="1195" y="2260" width="120" height="60" as="geometry" />
        </mxCell>
        <mxCell id="P7ycPzp3qJsK3b-wpOH1-55" value="" style="whiteSpace=wrap;html=1;aspect=fixed;" vertex="1" parent="1">
          <mxGeometry x="360" y="3300" width="180" height="180" as="geometry" />
        </mxCell>
        <mxCell id="P7ycPzp3qJsK3b-wpOH1-56" value="Nom" style="rounded=0;whiteSpace=wrap;html=1;" vertex="1" parent="1">
          <mxGeometry x="610" y="3360" width="120" height="60" as="geometry" />
        </mxCell>
        <mxCell id="P7ycPzp3qJsK3b-wpOH1-57" value="" style="whiteSpace=wrap;html=1;aspect=fixed;" vertex="1" parent="1">
          <mxGeometry x="855" y="3300" width="180" height="180" as="geometry" />
        </mxCell>
        <mxCell id="P7ycPzp3qJsK3b-wpOH1-58" value="Nom" style="rounded=0;whiteSpace=wrap;html=1;" vertex="1" parent="1">
          <mxGeometry x="1120" y="3360" width="120" height="60" as="geometry" />
        </mxCell>
        <mxCell id="P7ycPzp3qJsK3b-wpOH1-59" value="" style="whiteSpace=wrap;html=1;aspect=fixed;" vertex="1" parent="1">
          <mxGeometry x="360" y="3550" width="180" height="180" as="geometry" />
        </mxCell>
        <mxCell id="P7ycPzp3qJsK3b-wpOH1-60" value="Nom" style="rounded=0;whiteSpace=wrap;html=1;" vertex="1" parent="1">
          <mxGeometry x="610" y="3610" width="120" height="60" as="geometry" />
        </mxCell>
        <mxCell id="P7ycPzp3qJsK3b-wpOH1-61" value="" style="whiteSpace=wrap;html=1;aspect=fixed;" vertex="1" parent="1">
          <mxGeometry x="855" y="3550" width="180" height="180" as="geometry" />
        </mxCell>
        <mxCell id="P7ycPzp3qJsK3b-wpOH1-62" value="Nom" style="rounded=0;whiteSpace=wrap;html=1;" vertex="1" parent="1">
          <mxGeometry x="1120" y="3610" width="120" height="60" as="geometry" />
        </mxCell>
        <mxCell id="P7ycPzp3qJsK3b-wpOH1-63" value="" style="whiteSpace=wrap;html=1;aspect=fixed;" vertex="1" parent="1">
          <mxGeometry x="360" y="3800" width="180" height="180" as="geometry" />
        </mxCell>
        <mxCell id="P7ycPzp3qJsK3b-wpOH1-64" value="Nom" style="rounded=0;whiteSpace=wrap;html=1;" vertex="1" parent="1">
          <mxGeometry x="610" y="3860" width="120" height="60" as="geometry" />
        </mxCell>
        <mxCell id="P7ycPzp3qJsK3b-wpOH1-65" value="" style="whiteSpace=wrap;html=1;aspect=fixed;" vertex="1" parent="1">
          <mxGeometry x="855" y="3800" width="180" height="180" as="geometry" />
        </mxCell>
        <mxCell id="P7ycPzp3qJsK3b-wpOH1-66" value="Nom" style="rounded=0;whiteSpace=wrap;html=1;" vertex="1" parent="1">
          <mxGeometry x="1120" y="3860" width="120" height="60" as="geometry" />
        </mxCell>
      </root>
    </mxGraphModel>
  </diagram>
</mxfile>
